<?xml version="1.0" encoding="UTF-8"?>
<svg width="400" height="800" viewBox="0 0 700 400" xmlns="http://www.w3.org/2000/svg">
    <g transform="translate(-2000.000000,400.000000) scale(0.220000,-0.220000)"
       fill="#C3C7CD" stroke="none">
        <path d="M0 895 l0 -895 645 0 645 0 0 895 0 895 -645 0 -645 0 0 -895z m583
53 l-47 -48 -238 0 -238 0 0 355 0 355 223 0 223 0 60 67 59 67 3 -374 2 -374
-47 -48z m420 662 l217 0 0 -355 0 -355 -238 0 -238 0 -42 43 -42 43 0 379 1
380 62 -68 62 -68 218 1z m-421 -787 l48 -47 0 -363 0 -362 -55 25 c-30 14
-125 43 -211 65 -177 45 -185 48 -237 98 -60 57 -67 96 -67 383 l0 248 237 0
237 0 48 -47z m638 -220 c0 -303 -4 -322 -76 -381 -43 -36 -78 -48 -244 -87
-63 -15 -143 -40 -177 -55 l-63 -29 0 367 0 366 42 43 42 43 238 0 238 0 0
-267z"/>
        <path d="M503 1403 c-8 -2 -13 -22 -13 -44 0 -32 -4 -39 -19 -39 -11 0 -28 12
-38 26 -15 21 -25 25 -42 19 -23 -7 -24 -11 -9 -75 5 -21 -31 -24 -53 -4 -16
14 -21 15 -36 3 -10 -7 -19 -14 -21 -15 -2 -1 4 -14 14 -29 16 -24 16 -27 1
-42 -13 -13 -21 -14 -41 -5 -20 9 -27 8 -40 -7 -15 -16 -15 -19 4 -36 12 -11
20 -28 18 -39 -2 -16 -11 -21 -37 -22 -24 0 -37 -6 -42 -20 -11 -29 -11 -30
16 -42 36 -17 33 -49 -6 -57 -24 -5 -29 -11 -27 -28 3 -19 10 -22 48 -22 l45
0 8 62 c4 34 16 82 27 107 44 104 162 188 282 202 52 6 58 9 58 30 0 16 -4 22
-15 18 -9 -4 -22 6 -36 30 -21 37 -24 38 -46 29z"/>
        <path d="M521 1269 c-104 -21 -187 -82 -231 -173 -33 -66 -52 -176 -31 -176 6
0 11 9 11 19 0 10 8 29 19 42 l19 23 108 -42 108 -43 43 43 43 44 -42 103
c-45 113 -44 132 8 141 15 3 28 10 28 15 1 13 -30 15 -83 4z m-32 -78 c26 -14
88 -178 75 -199 -23 -36 -39 -36 -135 0 -87 32 -94 37 -97 64 -4 38 43 104 89
127 40 19 45 20 68 8z"/>
        <path d="M841 1346 c-23 -27 -40 -83 -30 -93 7 -7 8 -17 1 -29 -5 -11 -15 -41
-21 -69 -7 -27 -26 -71 -42 -96 -35 -55 -35 -60 -8 -85 21 -19 21 -19 49 14
15 18 42 60 61 92 19 33 42 74 51 90 25 43 44 37 64 -17 17 -48 69 -113 88
-113 31 0 116 176 116 239 l0 27 -105 -4 c-87 -4 -105 -2 -105 10 0 29 -100
58 -119 34z"/>
        <path d="M488 778 c-19 -18 -38 -41 -41 -50 -8 -23 -19 -23 -67 2 l-39 20
-110 -110 c-100 -100 -117 -129 -58 -99 12 7 51 35 87 64 77 61 90 70 90 56 0
-8 -74 -107 -163 -219 -5 -7 -8 -15 -5 -18 3 -3 52 34 109 81 88 72 129 98
129 81 0 -2 -29 -43 -65 -91 -37 -50 -65 -97 -65 -111 0 -19 18 -5 108 84
l108 107 -18 37 c-22 45 -23 78 -4 78 18 0 66 43 66 58 0 6 5 12 11 14 5 2 -1
13 -14 26 l-23 22 -36 -32z"/>
        <path d="M814 823 c-30 -3 -49 -13 -73 -37 -29 -30 -33 -41 -38 -110 -5 -71
-4 -79 17 -101 19 -20 33 -25 72 -25 35 0 48 -4 48 -14 0 -8 11 -18 24 -23 24
-8 86 -77 86 -95 0 -24 -34 -18 -66 13 -27 27 -36 31 -47 20 -19 -19 58 -82
97 -79 59 6 60 58 1 128 -19 23 -35 48 -35 56 0 8 -7 14 -16 14 -19 0 -13 24
7 28 15 3 152 -131 161 -158 4 -12 12 -9 37 14 31 30 41 56 20 56 -6 0 -45 34
-86 76 -70 70 -74 76 -59 93 21 23 21 70 0 100 -17 24 -73 52 -96 49 -7 -1
-31 -3 -54 -5z"/>
    </g>
    <text x="-1300" y="55%" fill="#C3C7CD"  text-anchor="middle" dominant-baseline="middle" font-size="280" font-family="Calibri">KPI</text>
</svg>
